<svg width="144" height="96" viewBox="0 0 144 96" fill="none" xmlns="http://www.w3.org/2000/svg">
<path fill-rule="evenodd" clip-rule="evenodd" d="M116.183 13.7547H116.207C116.471 13.7626 116.691 13.555 116.699 13.2909C116.707 13.0268 116.5 12.8063 116.236 12.7983C115.735 12.7696 115.257 12.7457 114.78 12.7457C114.516 12.7457 114.303 12.9598 114.303 13.2239C114.303 13.488 114.516 13.7021 114.78 13.7021C115.229 13.7069 115.706 13.726 116.183 13.7547ZM108.612 14.2903C108.383 14.2954 108.183 14.1369 108.135 13.9125C108.108 13.7875 108.132 13.657 108.202 13.5501C108.272 13.4432 108.382 13.3688 108.507 13.3435C108.985 13.2478 109.462 13.157 109.939 13.0852C110.11 13.0588 110.282 13.1254 110.39 13.2602C110.498 13.3949 110.526 13.5772 110.464 13.7384C110.401 13.8996 110.258 14.0152 110.087 14.0416C109.61 14.1134 109.166 14.1994 108.703 14.2951C108.673 14.2978 108.642 14.2962 108.612 14.2903ZM122.213 14.8211C122.259 14.8257 122.305 14.8257 122.351 14.8211L122.375 14.8355C122.545 14.8594 122.716 14.7903 122.822 14.6543C122.928 14.5183 122.953 14.336 122.889 14.1761C122.824 14.0162 122.679 13.903 122.509 13.8791C122.031 13.7404 121.554 13.616 121.076 13.5013C120.813 13.4392 120.549 13.603 120.487 13.8671C120.425 14.1312 120.588 14.3956 120.852 14.4577C121.306 14.5629 121.764 14.6872 122.213 14.8211ZM102.752 16.1122C102.524 16.1117 102.328 15.949 102.285 15.7241C102.242 15.4984 102.365 15.2738 102.578 15.1893C103.027 15.0076 103.476 14.8355 103.929 14.6729C104.175 14.5917 104.44 14.7209 104.528 14.9643C104.616 15.2077 104.494 15.477 104.254 15.5719C103.815 15.7297 103.375 15.8971 102.936 16.0788C102.867 16.1071 102.791 16.1185 102.717 16.1122H102.752ZM127.85 17.1117C127.92 17.1526 127.999 17.1741 128.08 17.1738C128.299 17.175 128.49 17.0266 128.545 16.8139C128.599 16.6013 128.501 16.3791 128.309 16.2748C127.889 16.0453 127.454 15.8205 127.01 15.6101C126.856 15.5367 126.674 15.5513 126.533 15.6484C126.393 15.7456 126.315 15.9106 126.328 16.0812C126.342 16.2518 126.445 16.4022 126.6 16.4757C127.029 16.6765 127.449 16.8917 127.85 17.1117ZM97.1992 18.8571C97.0294 18.8564 96.8726 18.7654 96.7877 18.618C96.6573 18.3907 96.734 18.1006 96.9595 17.9677C97.3796 17.7238 97.7997 17.4895 98.2198 17.2599C98.369 17.1745 98.5524 17.1753 98.7009 17.2621C98.8493 17.3488 98.9403 17.5083 98.9396 17.6805C98.9388 17.8527 98.8464 18.0113 98.6972 18.0968C98.496 18.2056 98.2959 18.3213 98.0964 18.4365L98.0963 18.4366C97.884 18.5592 97.6724 18.6815 97.4608 18.7949C97.3687 18.8493 97.2612 18.8712 97.1552 18.8571H97.1992ZM132.667 20.7412C132.756 20.8325 132.878 20.8841 133.006 20.8847H132.987C133.12 20.8919 133.249 20.8434 133.345 20.7508C133.53 20.5642 133.53 20.263 133.345 20.0765C133.001 19.7274 132.643 19.3879 132.28 19.0675C132.083 18.8935 131.781 18.9127 131.607 19.1105C131.434 19.3087 131.453 19.6104 131.65 19.7848C132.01 20.1036 132.349 20.4224 132.667 20.7412ZM91.9971 22.2714C91.8453 22.271 91.7026 22.1983 91.6129 22.0754C91.5375 21.9733 91.5056 21.8454 91.5244 21.7198C91.5432 21.5942 91.6112 21.4813 91.7132 21.4059C92.1046 21.119 92.4961 20.8416 92.8875 20.5643C93.0274 20.466 93.2089 20.45 93.3638 20.5222C93.5186 20.5944 93.6233 20.7439 93.6383 20.9143C93.6533 21.0848 93.5764 21.2503 93.4365 21.3485L92.2813 22.1758C92.1947 22.2409 92.0887 22.2746 91.9805 22.2714H91.9971ZM135.522 24.4138C135.765 24.8107 135.994 25.2219 136.214 25.6379C136.295 25.7954 136.457 25.8948 136.634 25.8962C136.802 25.8974 136.959 25.8098 137.046 25.6657C137.133 25.5215 137.138 25.342 137.059 25.1932C136.979 25.0527 136.902 24.9123 136.825 24.7724L136.825 24.7721L136.825 24.7717L136.824 24.7707C136.665 24.4828 136.508 24.1977 136.338 23.9212C136.202 23.6958 135.91 23.6231 135.684 23.7586C135.459 23.895 135.387 24.1879 135.522 24.4138ZM87.1495 26.1496L87.1394 26.1495C87.259 26.1468 87.3734 26.0991 87.4598 26.0157L87.4605 26.0151L87.4606 26.015C87.8231 25.7044 88.1857 25.3938 88.5482 25.0928C88.7512 24.9225 88.7779 24.6195 88.6079 24.4162C88.4378 24.2128 88.1354 24.186 87.9324 24.3564L86.8344 25.3128C86.6856 25.4442 86.6335 25.6542 86.7035 25.8402C86.7723 26.023 86.9451 26.1451 87.1394 26.1495L87.1304 26.1496H87.1495ZM82.1412 30.0703C82.2144 30.2493 82.3879 30.3665 82.581 30.3673H82.5619C82.7025 30.3738 82.8387 30.3178 82.9343 30.2143L83.0251 30.1257L83.1882 29.9664L83.189 29.9656L83.1899 29.9648L83.1899 29.9647C83.4469 29.7137 83.7024 29.464 83.9606 29.2197C84.1457 29.0331 84.1457 28.7319 83.9606 28.5454C83.871 28.4549 83.749 28.4039 83.6217 28.4039C83.4944 28.4039 83.3724 28.4549 83.2827 28.5454L82.2468 29.5496C82.1098 29.6858 82.0681 29.8913 82.1412 30.0703ZM138.778 31.7111C138.553 31.7176 138.354 31.5663 138.3 31.3476C138.19 30.8694 138.071 30.4247 137.937 29.9848C137.902 29.863 137.916 29.7321 137.977 29.6209C138.038 29.5097 138.14 29.4273 138.262 29.3918C138.514 29.3175 138.778 29.4606 138.854 29.7122L138.887 29.8315C139.009 30.2664 139.126 30.6846 139.231 31.1229C139.261 31.2466 139.241 31.3772 139.175 31.4858C139.108 31.5944 139.001 31.672 138.878 31.7015L138.778 31.7111ZM77.9266 34.695C78.0146 34.7776 78.1306 34.8237 78.2512 34.8241H78.2321C78.3792 34.8365 78.5237 34.78 78.6236 34.6711L79.5783 33.6286C79.7368 33.4345 79.7185 33.1507 79.5365 32.9784C79.3546 32.8062 79.0707 32.804 78.8861 32.9735C78.5567 33.3178 78.2273 33.6669 77.9027 34.0208C77.7241 34.2138 77.7347 34.5152 77.9266 34.695ZM139.642 37.8607C139.389 37.8611 139.179 37.664 139.164 37.4112C139.136 36.933 139.102 36.4548 139.059 35.9766C139.035 35.7125 139.23 35.4791 139.494 35.4554C139.757 35.4316 139.99 35.6264 140.014 35.8905C140.057 36.3687 140.095 36.8469 140.119 37.3251C140.119 37.5784 139.923 37.7881 139.67 37.8033L139.642 37.8607ZM73.6634 39.1776C73.7402 39.3467 73.9078 39.456 74.0933 39.4579H74.0837C74.2242 39.4605 74.3586 39.401 74.4513 39.2953C74.7759 38.9319 75.091 38.5732 75.4061 38.2146C75.5276 38.0878 75.57 37.9043 75.5163 37.737C75.4625 37.5696 75.3215 37.4452 75.1489 37.4131C74.9763 37.381 74.8001 37.4464 74.69 37.5833C74.3606 37.942 74.0455 38.3054 73.7353 38.6688C73.6147 38.81 73.5867 39.0084 73.6634 39.1776ZM139.489 44.0773H139.527C139.654 44.076 139.776 44.0238 139.865 43.9321C139.954 43.8405 140.002 43.7172 140 43.5895C140.038 43.1113 140.071 42.6331 140.095 42.1549C140.109 41.8925 139.908 41.6682 139.646 41.6528C139.516 41.6462 139.388 41.6937 139.293 41.7841C139.199 41.8745 139.145 41.9999 139.145 42.131C139.116 42.6092 139.088 43.0874 139.05 43.5656C139.03 43.8282 139.227 44.0569 139.489 44.0773ZM70.0833 44.2207C69.9734 44.2198 69.8672 44.181 69.7826 44.1107C69.5809 43.9437 69.5511 43.645 69.7158 43.4413L70.6275 42.3318C70.7333 42.1977 70.9024 42.1303 71.0712 42.155C71.2401 42.1797 71.3829 42.2927 71.446 42.4515C71.5091 42.6103 71.4828 42.7907 71.377 42.9248L70.47 44.0294C70.3789 44.1512 70.2353 44.2222 70.0833 44.2207ZM3.66146 48.0511C3.74278 48.1122 3.84146 48.1457 3.94311 48.1467C4.0959 48.1471 4.23964 48.0742 4.32979 47.9507C4.60189 47.5825 4.89309 47.2095 5.19861 46.8508C5.36866 46.6488 5.34301 46.3469 5.14132 46.1766C4.93963 46.0062 4.63828 46.0319 4.46823 46.2339C4.15316 46.6117 3.84764 46.9991 3.56121 47.3864C3.4073 47.5981 3.45199 47.8944 3.66146 48.0511ZM66.188 49.0744C66.0045 49.0754 65.8367 48.971 65.7563 48.8058C65.6759 48.6407 65.6971 48.4439 65.8108 48.2998L66.7035 47.1712C66.8081 47.0318 66.9802 46.9604 67.1525 46.985C67.3249 47.0096 67.4702 47.1263 67.5318 47.2894C67.5933 47.4526 67.5613 47.6363 67.4482 47.769L66.5603 48.8927C66.4724 49.0043 66.3394 49.0709 66.1975 49.0744H66.188ZM138.596 50.2365C138.626 50.2415 138.657 50.2415 138.687 50.2365C138.915 50.2448 139.117 50.0906 139.169 49.8682C139.255 49.3916 139.336 48.9149 139.416 48.4382L139.417 48.4337C139.445 48.2628 139.38 48.0899 139.247 47.9801C139.113 47.8702 138.931 47.8402 138.769 47.9012C138.608 47.9622 138.491 48.105 138.462 48.2758C138.387 48.7201 138.312 49.1396 138.232 49.5803L138.214 49.6817C138.168 49.9404 138.338 50.1881 138.596 50.2365ZM1.10274 53.6699C1.05683 53.6767 1.0102 53.6767 0.964296 53.6699C0.7126 53.5919 0.571588 53.3244 0.649229 53.0722C0.787668 52.594 0.954749 52.1397 1.1266 51.6806C1.1831 51.512 1.32834 51.3888 1.50364 51.3606C1.67894 51.3325 1.85534 51.4041 1.9616 51.5466C2.06785 51.6891 2.0864 51.8789 2.00975 52.0393C1.83789 52.4744 1.68036 52.9144 1.53237 53.3495C1.46192 53.5219 1.298 53.6376 1.11228 53.646L1.10274 53.6699ZM62.0778 53.909C62.1611 53.9738 62.2635 54.0091 62.369 54.0094L62.3785 53.9855C62.519 53.9881 62.6534 53.9287 62.7461 53.8229L63.6245 52.6896C63.7866 52.4797 63.7481 52.1778 63.5385 52.0154C63.3289 51.8529 63.0276 51.8915 62.8654 52.1014L61.9918 53.2395C61.8315 53.4483 61.87 53.7476 62.0778 53.909ZM137.255 56.3144C137.21 56.319 137.165 56.319 137.121 56.3144C136.999 56.2788 136.897 56.1964 136.836 56.0852C136.775 55.974 136.761 55.8431 136.796 55.7214C136.916 55.3006 137.045 54.8415 137.174 54.349C137.205 54.2258 137.284 54.1203 137.393 54.0557C137.503 53.9911 137.633 53.9727 137.756 54.0047C137.879 54.0372 137.984 54.1176 138.048 54.228C138.111 54.3385 138.128 54.4698 138.095 54.5928C137.966 55.071 137.837 55.5492 137.713 55.9844C137.648 56.1827 137.463 56.3163 137.255 56.3144ZM58.1666 58.6791C58.2478 58.8428 58.4152 58.9458 58.5977 58.9444V58.9253C58.7421 58.922 58.8772 58.8535 58.9653 58.7388L59.8484 57.6151C59.994 57.4048 59.9485 57.117 59.7452 56.962C59.542 56.807 59.2529 56.8398 59.0894 57.0364L58.2158 58.1745C58.1044 58.3195 58.0853 58.5153 58.1666 58.6791ZM0.606266 59.81C0.366656 59.8123 0.162426 59.6364 0.128891 59.3987C0.0620587 58.9205 0.019095 58.4089 0 57.9211C0 57.657 0.213728 57.4429 0.477374 57.4429C0.741021 57.4429 0.954749 57.657 0.954749 57.9211C0.970608 58.3819 1.01044 58.8416 1.07409 59.2983C1.09173 59.4246 1.05828 59.5527 0.981194 59.6542C0.904105 59.7556 0.789754 59.8221 0.66355 59.8387L0.606266 59.81ZM54.3752 63.6071C54.4552 63.7705 54.6209 63.8742 54.8026 63.8747V63.8555C54.9471 63.8598 55.0858 63.7983 55.1797 63.6882L56.0581 62.5548C56.1751 62.421 56.2082 62.2332 56.1442 62.0673C56.0801 61.9014 55.9294 61.7848 55.7529 61.7647C55.5765 61.7446 55.4035 61.8242 55.3038 61.9714L54.4255 63.1048C54.3146 63.249 54.2951 63.4437 54.3752 63.6071ZM2.57782 65.6775C2.39657 65.6724 2.23382 65.565 2.15773 65.4001C1.92859 64.9554 1.71377 64.5107 1.52282 64.0803C1.47147 63.9643 1.46827 63.8325 1.51393 63.7141C1.5596 63.5957 1.65039 63.5004 1.76629 63.4491C1.88212 63.3976 2.01362 63.3944 2.13182 63.4402C2.25002 63.4859 2.34521 63.5769 2.39642 63.693C2.5826 64.1042 2.78787 64.5346 3.00746 64.9602C3.06559 65.0736 3.07611 65.2056 3.03667 65.3268C2.99723 65.448 2.9111 65.5484 2.79741 65.6057C2.72947 65.6406 2.65417 65.6587 2.57782 65.6583V65.6775ZM50.6303 68.6375C50.7162 68.7088 50.8243 68.7477 50.9359 68.7475C51.0786 68.7466 51.2135 68.6816 51.3034 68.5706L52.2104 67.4516C52.374 67.2466 52.3421 66.9478 52.1388 66.7821C52.0402 66.7019 51.9137 66.6643 51.7874 66.6778C51.6611 66.6913 51.5453 66.7546 51.4657 66.8538C51.165 67.2316 50.8642 67.5998 50.5635 67.968C50.3988 68.1718 50.4286 68.4705 50.6303 68.6375ZM5.97673 70.8659C5.8298 70.8667 5.6907 70.7997 5.5996 70.6842C5.29408 70.2969 5.00288 69.9095 4.72123 69.5222C4.64676 69.419 4.61647 69.2902 4.63708 69.1646C4.6577 69.0389 4.7275 68.9266 4.83103 68.8527C5.04482 68.7006 5.3411 68.7497 5.49458 68.9627C5.77146 69.3405 6.05311 69.7182 6.34908 70.0912C6.46229 70.2347 6.48386 70.4304 6.40465 70.5952C6.32544 70.76 6.15932 70.8651 5.97673 70.8659ZM46.5679 73.3526C46.6554 73.4323 46.7694 73.4766 46.8877 73.4769V73.453C47.0221 73.4616 47.1539 73.413 47.2505 73.3191L47.4546 73.0896L47.4551 73.089C47.7007 72.8129 47.9516 72.5309 48.2053 72.2431C48.3269 72.1163 48.3692 71.9329 48.3155 71.7655C48.2617 71.5982 48.1207 71.4738 47.9481 71.4417C47.7755 71.4096 47.5993 71.475 47.4892 71.6119C47.1856 71.9569 46.8819 72.2933 46.5824 72.6252L46.5821 72.6255L46.5345 72.6783C46.3583 72.8739 46.3732 73.1754 46.5679 73.3526ZM10.1728 75.4423C10.0545 75.442 9.94056 75.3977 9.85301 75.3179C9.49498 74.988 9.14172 74.6532 8.80278 74.3185C8.61428 74.1336 8.61107 73.8307 8.79562 73.6419C8.98018 73.453 9.2826 73.4498 9.47111 73.6347C9.80527 73.9646 10.149 74.2898 10.4975 74.5911C10.5917 74.677 10.6478 74.7971 10.6532 74.9246C10.6586 75.0522 10.6128 75.1766 10.5261 75.2701C10.4385 75.3756 10.3098 75.4383 10.1728 75.4423ZM42.0997 77.6611C42.1894 77.7691 42.3221 77.8321 42.4625 77.8333C42.5777 77.8256 42.6862 77.7763 42.768 77.6946L42.8778 77.6037C43.2024 77.3264 43.527 77.0347 43.8612 76.7286C44.0549 76.549 44.0667 76.2461 43.8874 76.052C43.7081 75.8579 43.4057 75.8461 43.2119 76.0257C42.8921 76.3222 42.5723 76.6043 42.2572 76.8769L42.1522 76.9869C42.0559 77.0693 41.9963 77.1866 41.9865 77.3131C41.9766 77.4395 42.0173 77.5647 42.0997 77.6611ZM15.1089 79.2057C15.0179 79.2069 14.9285 79.182 14.8511 79.134C14.4454 78.8757 14.0396 78.6032 13.6434 78.3258C13.4275 78.1751 13.3741 77.8778 13.524 77.6611C13.6745 77.4449 13.9713 77.3914 14.1876 77.5416C14.5742 77.8141 14.9657 78.0724 15.3619 78.3258C15.5388 78.4402 15.62 78.6572 15.5617 78.8599C15.5034 79.0626 15.3194 79.2031 15.1089 79.2057ZM36.8963 80.975C36.9763 81.1387 37.1422 81.2425 37.324 81.2428H37.3068C37.386 81.2462 37.4647 81.2297 37.5359 81.195C37.9656 80.9798 38.4 80.7455 38.8249 80.5016C39.0522 80.3703 39.131 80.0798 39.0015 79.8513C38.9385 79.7406 38.834 79.6597 38.7113 79.6264C38.5885 79.5932 38.4575 79.6105 38.3475 79.6743C37.9417 79.9086 37.5264 80.1334 37.1111 80.3342C36.8752 80.4519 36.7791 80.7386 36.8963 80.975ZM20.6512 81.9792C20.5959 81.9792 20.5409 81.9695 20.4889 81.9505C20.0115 81.7832 19.5819 81.6015 19.1332 81.4102C18.9763 81.3427 18.8672 81.1965 18.8471 81.0266C18.827 80.8568 18.8989 80.6891 19.0357 80.5867C19.1725 80.4843 19.3534 80.4628 19.5103 80.5303C19.9399 80.7168 20.3839 80.8889 20.8183 81.0515C21.0369 81.131 21.1666 81.3567 21.1253 81.586C21.084 81.8152 20.8838 81.9813 20.6512 81.9792ZM31.0086 82.938C31.1049 83.0796 31.2693 83.1589 31.4399 83.146L31.5258 83.1365C32.0032 83.06 32.4806 82.9643 32.9579 82.8496C33.2132 82.7881 33.371 82.5318 33.3112 82.2757C33.2828 82.152 33.2064 82.0447 33.099 81.9774C32.9915 81.9102 32.8618 81.8885 32.7383 81.9171C32.2848 82.0271 31.8218 82.1179 31.3683 82.1897C31.1977 82.2025 31.047 82.3055 30.9728 82.4598C30.8986 82.6142 30.9122 82.7965 31.0086 82.938ZM26.6279 83.3278H26.6661L26.6852 83.3182C26.9489 83.3288 27.1712 83.1232 27.1817 82.8591C27.1922 82.595 26.9871 82.3724 26.7234 82.3618C26.2588 82.3235 25.7957 82.271 25.3343 82.204C25.1637 82.1792 24.9929 82.2475 24.8862 82.383C24.7795 82.5186 24.7532 82.7009 24.817 82.8612C24.8809 83.0216 25.0253 83.1356 25.1958 83.1604C25.6732 83.2321 26.1506 83.2895 26.6279 83.3278ZM8.24496 43.6708C8.04362 43.6699 7.86426 43.5426 7.79699 43.3522C7.72926 43.1605 7.78995 42.9468 7.94828 42.8196C8.58381 42.3069 9.01735 42.008 9.11612 41.9399L9.11615 41.9398L9.11617 41.9398L9.13695 41.9254C9.35689 41.7854 9.64823 41.848 9.79155 42.066C9.93488 42.284 9.87725 42.5768 9.66206 42.724C9.66206 42.724 9.2181 43.0204 8.54978 43.5608C8.46263 43.6332 8.35266 43.6721 8.23948 43.6708H8.24496Z" fill="#E6E6E6"/>
<path d="M106.531 89.0853H51.6853L62.5169 0.704681H111.429L116.537 7.46162L106.531 89.0853Z" fill="#39475F"/>
<path d="M100.597 89.0853H45.7468L56.5785 0.704681H111.429L100.597 89.0853Z" fill="#61728D"/>
<path d="M97.8951 72.3148H52.0671L59.8818 8.58539H105.71L97.8951 72.3148Z" fill="#181F27"/>
<path d="M82.4377 44.4933L95.6801 44.6511L95.4223 46.7026L82.4377 46.4778V44.4933Z" fill="#1E252E"/>
<path d="M45.7468 89.0853L52.3441 95.1871L105.71 96L106.531 89.0853H45.7468Z" fill="#39475F"/>
<path d="M88.0851 25.8292C88.0851 25.8292 90.3718 25.9918 91.5413 30.3004C92.7109 34.6089 92.3099 46.6356 92.3099 46.6356L82.4473 46.4778C82.4473 46.4778 77.5256 28.5789 88.0851 25.8292Z" fill="#2D394B"/>
<path d="M4.81761 29.1935L40.6911 -4.50397e-06L59.5189 23.2158L23.6454 52.4093L4.81761 29.1935Z" fill="#FC7614"/>
<path d="M24.4349 19.4944L40.4968 6.42337L43.6062 10.2574L27.5443 23.3284L24.4349 19.4944Z" fill="white"/>
<path opacity="0.46" d="M22.1019 43.6269C21.2443 42.5694 21.405 41.0172 22.4611 40.1578L27.206 36.2964C28.2646 35.435 29.8213 35.5961 30.681 36.6561C31.5386 37.7136 31.3779 39.2658 30.3219 40.1252L25.5769 43.9866C24.5183 44.848 22.9616 44.6869 22.1019 43.6269Z" fill="white"/>
<path opacity="0.46" d="M32.8204 34.9075C31.9628 33.85 32.1235 32.2978 33.1795 31.4384L48.1915 19.2218C49.2501 18.3603 50.8068 18.5215 51.6665 19.5815C52.5241 20.639 52.3634 22.1912 51.3074 23.0506L36.2954 35.2672C35.2368 36.1286 33.6801 35.9675 32.8204 34.9075Z" fill="white"/>
<ellipse opacity="0.3" cx="15.9442" cy="29.8987" rx="3.26524" ry="3.27087" fill="white"/>
<ellipse opacity="0.3" cx="19.2572" cy="26.9195" rx="3.26524" ry="3.27087" fill="white"/>
<path d="M88.0851 25.8292C88.0851 25.8292 82.896 27.699 84.7053 42.3462C86.0324 53.0769 81.5498 67.2842 74.9239 67.4563C68.2979 67.6285 56.0771 67.0451 56.0771 67.0451C56.0771 67.0451 62.4405 50.5473 61.123 36.6939C60.9205 34.7544 61.1521 32.7941 61.8009 30.9555C62.5742 28.8466 64.0111 26.6517 66.6844 26.2931C72.0215 25.5662 88.0851 25.8292 88.0851 25.8292Z" fill="#BAD6FA"/>
<path d="M52.4062 68.1163L75.8215 67.6381C75.8215 67.6381 72.2507 64.0898 72.0263 55.0567L39.8179 55.5349C40.3699 57.8656 41.2186 60.1156 42.3432 62.2296C44.3267 65.9303 48.2141 68.2043 52.4062 68.1163Z" fill="#546F8D"/>
<path d="M69.5199 13.1857L68.7036 18.5558H92.3671L93.0831 13.1857H69.5199Z" fill="#2D394B"/>
<path opacity="0.48" d="M76.0363 76.6139C73.4823 74.3759 69.4437 74.8158 67.6393 77.6994C67.1838 78.4 66.9371 79.2161 66.928 80.0521C66.928 83.5908 69.3674 85.91 74.2414 84.9345C77.9601 84.1885 79.3779 79.5356 76.0363 76.6139Z" fill="white"/>
<ellipse cx="130.834" cy="72.4822" rx="13.166" ry="13.1887" fill="#FC7614"/>
<path d="M65.5388 31.778C65.3683 31.784 65.2075 31.6983 65.117 31.5534C65.0266 31.4084 65.0202 31.2261 65.1003 31.0752C65.1804 30.9242 65.3348 30.8276 65.5054 30.8216C65.6056 30.8216 75.5875 30.0852 80.9389 30.5634C81.2026 30.5871 81.397 30.8205 81.3733 31.0846C81.3496 31.3487 81.1166 31.5435 80.853 31.5198C75.6019 31.0416 65.6725 31.7636 65.577 31.7732L65.5388 31.778Z" fill="white"/>
<path d="M64.7463 38.248C64.4827 38.2573 64.2615 38.0507 64.2523 37.7866C64.243 37.5225 64.4493 37.3009 64.7129 37.2916C64.8132 37.2916 74.7951 36.5552 80.1464 37.0334C80.4101 37.0572 80.6046 37.2905 80.5808 37.5546C80.5571 37.8187 80.3242 38.0136 80.0605 37.9898C74.8094 37.5116 64.8848 38.2385 64.7845 38.2432L64.7463 38.248Z" fill="white"/>
<path d="M64.6555 44.9715C64.3919 44.9821 64.1696 44.7765 64.1591 44.5124C64.1485 44.2483 64.3537 44.0257 64.6174 44.0151C64.7176 44.0151 74.7043 43.2787 80.0509 43.7569C80.2214 43.7722 80.3708 43.8776 80.4428 44.0332C80.5148 44.1889 80.4984 44.3712 80.3998 44.5114C80.3013 44.6517 80.1355 44.7286 79.9649 44.7133C74.7138 44.2351 64.7892 44.9619 64.689 44.9667L64.6555 44.9715Z" fill="white"/>
<path d="M64.0207 51.6949C63.8502 51.7009 63.6894 51.6153 63.599 51.4703C63.5085 51.3254 63.5022 51.1431 63.5823 50.9921C63.6624 50.8412 63.8168 50.7445 63.9873 50.7385C64.0876 50.7385 74.0695 50.0021 79.4208 50.4851C79.5914 50.5005 79.7408 50.6058 79.8128 50.7615C79.8848 50.9171 79.8684 51.0994 79.7698 51.2397C79.6712 51.3799 79.5055 51.4569 79.3349 51.4415C74.0838 50.9633 64.1592 51.6902 64.0589 51.6949H64.0207Z" fill="white"/>
</svg>
